# Blender 4.1.1
# www.blender.org
mtllib Skybox.mtl
o Cube
o Cube.001
v -50.000000 50.000000 50.000000
v -50.000000 50.000000 -50.000000
v 50.000000 50.000000 50.000000
v 50.000000 50.000000 -50.000000
vn -0.0000 -1.0000 -0.0000
vt 1.000000 1.000000
vt 1.000000 0.000000
vt 0.000000 0.000000
vt 0.000000 1.000000
s 0
usemtl Material.009
f 4/1/1 3/2/1 1/3/1 2/4/1
o Cube.002
v 50.000000 -50.000000 50.000000
v 50.000000 50.000000 50.000000
v 50.000000 -50.000000 -50.000000
v 50.000000 50.000000 -50.000000
vn -1.0000 -0.0000 -0.0000
vt 0.375000 0.500000
vt 0.375000 0.750000
vt 0.625000 0.750000
vt 0.625000 0.500000
s 0
usemtl Material.007
f 7/5/2 5/6/2 6/7/2 8/8/2
o Cube.003
v -50.000000 -50.000000 -50.000000
v -50.000000 50.000000 -50.000000
v 50.000000 -50.000000 -50.000000
v 50.000000 50.000000 -50.000000
vn -0.0000 -0.0000 1.0000
vt 0.375000 0.250000
vt 0.375000 0.500000
vt 0.625000 0.500000
vt 0.625000 0.250000
s 0
usemtl Material.008
f 9/9/3 11/10/3 12/11/3 10/12/3
o Cube.004
v -50.000000 -50.000000 50.000000
v -50.000000 50.000000 50.000000
v -50.000000 -50.000000 -50.000000
v -50.000000 50.000000 -50.000000
vn 1.0000 -0.0000 -0.0000
vt 0.375000 0.000000
vt 0.375000 0.250000
vt 0.625000 0.250000
vt 0.625000 0.000000
s 0
usemtl Material.006
f 13/13/4 15/14/4 16/15/4 14/16/4
o Cube.005
v -50.000000 -50.000000 50.000000
v -50.000000 50.000000 50.000000
v 50.000000 -50.000000 50.000000
v 50.000000 50.000000 50.000000
vn -0.0000 -0.0000 -1.0000
vt 0.375000 0.750000
vt 0.375000 1.000000
vt 0.625000 1.000000
vt 0.625000 0.750000
s 0
usemtl Material.004
f 19/17/5 17/18/5 18/19/5 20/20/5
o Cube.006
v -50.000000 -50.000000 50.000000
v -50.000000 -50.000000 -50.000000
v 50.000000 -50.000000 50.000000
v 50.000000 -50.000000 -50.000000
vn -0.0000 1.0000 -0.0000
vt 0.125000 0.500000
vt 0.125000 0.750000
vt 0.375000 0.750000
vt 0.375000 0.500000
s 0
usemtl Material.005
f 22/21/6 21/22/6 23/23/6 24/24/6
